HIERARCHY
ROOT hip
{
  OFFSET 0 0 0
  CHANNELS 6 Xposition Yposition Zposition Zrotation Yrotation Xrotation
  JOINT abdomen
  {
    OFFSET 0 20.6881 -0.73152
    CHANNELS 3 Zrotation Xrotation Yrotation
    JOINT chest
    {
      OFFSET 0 11.7043 -0.48768
      CHANNELS 3 Zrotation Xrotation Yrotation
      JOINT neck
      {
        OFFSET 0 22.1894 -2.19456
        CHANNELS 3 Zrotation Xrotation Yrotation
        JOINT head
        {
          OFFSET -0.24384 7.07133 1.2192
          CHANNELS 3 Zrotation Xrotation Yrotation
          JOINT leftEye
          {
            OFFSET 4.14528 8.04674 8.04672
            CHANNELS 3 Zrotation Xrotation Yrotation
            End Site
            {
              OFFSET 1 0 0
            }
          }
          JOINT rightEye
          {
            OFFSET -3.6576 8.04674 8.04672
            CHANNELS 3 Zrotation Xrotation Yrotation
            End Site
            {
              OFFSET 1 0 0
            }
          }
        }
      }
      JOINT rCollar
      {
        OFFSET -2.68224 19.2634 -4.8768
        CHANNELS 3 Zrotation Xrotation Yrotation
        JOINT rShldr
        {
          OFFSET -8.77824 -1.95073 1.46304
          CHANNELS 3 Zrotation Xrotation Yrotation
          JOINT rForeArm
          {
            OFFSET -28.1742 -1.7115 0.48768
            CHANNELS 3 Zrotation Xrotation Yrotation
            JOINT rHand
            {
              OFFSET -22.5879 0.773209 7.07136
              CHANNELS 3 Zrotation Xrotation Yrotation
              JOINT rThumb1
              {
                OFFSET -1.2192 -0.487915 3.41376
                CHANNELS 3 Zrotation Xrotation Yrotation
                JOINT rThumb2
                {
                  OFFSET -3.37035 -0.52449 3.41376
                  CHANNELS 3 Zrotation Xrotation Yrotation
                  End Site
                  {
                    OFFSET -1.78271 -1.18214 1.43049
                  }
                }
              }
              JOINT rIndex1
              {
                OFFSET -7.75947 0.938293 5.60832
                CHANNELS 3 Zrotation Xrotation Yrotation
                JOINT rIndex2
                {
                  OFFSET -2.54057 -0.884171 1.56538
                  CHANNELS 3 Zrotation Xrotation Yrotation
                  End Site
                  {
                    OFFSET -1.62519 -0.234802 1.16502
                  }
                }
              }
              JOINT rMid1
              {
                OFFSET -8.24714 1.18213 3.41376
                CHANNELS 3 Zrotation Xrotation Yrotation
                JOINT rMid2
                {
                  OFFSET -3.10165 -0.590103 1.0647
                  CHANNELS 3 Zrotation Xrotation Yrotation
                  End Site
                  {
                    OFFSET -2.48547 -0.328903 0.83742
                  }
                }
              }
              JOINT rRing1
              {
                OFFSET -8.82822 0.546677 1.51678
                CHANNELS 3 Zrotation Xrotation Yrotation
                JOINT rRing2
                {
                  OFFSET -2.60934 -0.819778 -0.0198488
                  CHANNELS 3 Zrotation Xrotation Yrotation
                  End Site
                  {
                    OFFSET -2.33842 -0.294052 0.168128
                  }
                }
              }
              JOINT rPinky1
              {
                OFFSET -8.27202 -0.0477905 -0.4584
                CHANNELS 3 Zrotation Xrotation Yrotation
                JOINT rPinky2
                {
                  OFFSET -1.82734 -0.647385 -0.700984
                  CHANNELS 3 Zrotation Xrotation Yrotation
                  End Site
                  {
                    OFFSET -1.69225 -0.51767 -0.607171
                  }
                }
              }
            }
          }
        }
      }
      JOINT lCollar
      {
        OFFSET 2.68224 19.2634 -4.8768
        CHANNELS 3 Zrotation Xrotation Yrotation
        JOINT lShldr
        {
          OFFSET 8.77824 -1.95073 1.46304
          CHANNELS 3 Zrotation Xrotation Yrotation
          JOINT lForeArm
          {
            OFFSET 28.1742 -1.7115 0.48768
            CHANNELS 3 Zrotation Xrotation Yrotation
            JOINT lHand
            {
              OFFSET 22.5879 0.773209 7.07136
              CHANNELS 3 Zrotation Xrotation Yrotation
              JOINT lThumb1
              {
                OFFSET 1.2192 -0.487915 3.41376
                CHANNELS 3 Zrotation Xrotation Yrotation
                JOINT lThumb2
                {
                  OFFSET 3.37035 -0.52449 3.41376
                  CHANNELS 3 Zrotation Xrotation Yrotation
                  End Site
                  {
                    OFFSET 1.78271 -1.18214 1.43049
                  }
                }
              }
              JOINT lIndex1
              {
                OFFSET 7.75947 0.938293 5.60832
                CHANNELS 3 Zrotation Xrotation Yrotation
                JOINT lIndex2
                {
                  OFFSET 2.54057 -0.884171 1.56538
                  CHANNELS 3 Zrotation Xrotation Yrotation
                  End Site
                  {
                    OFFSET 1.62519 -0.234802 1.16502
                  }
                }
              }
              JOINT lMid1
              {
                OFFSET 8.24714 1.18213 3.41376
                CHANNELS 3 Zrotation Xrotation Yrotation
                JOINT lMid2
                {
                  OFFSET 3.10165 -0.590103 1.0647
                  CHANNELS 3 Zrotation Xrotation Yrotation
                  End Site
                  {
                    OFFSET 2.48547 -0.328903 0.83742
                  }
                }
              }
              JOINT lRing1
              {
                OFFSET 8.82822 0.546677 1.51678
                CHANNELS 3 Zrotation Xrotation Yrotation
                JOINT lRing2
                {
                  OFFSET 2.60934 -0.819778 -0.0198488
                  CHANNELS 3 Zrotation Xrotation Yrotation
                  End Site
                  {
                    OFFSET 2.33842 -0.294052 0.168128
                  }
                }
              }
              JOINT lPinky1
              {
                OFFSET 8.27202 -0.0477905 -0.4584
                CHANNELS 3 Zrotation Xrotation Yrotation
                JOINT lPinky2
                {
                  OFFSET 1.82734 -0.647385 -0.700984
                  CHANNELS 3 Zrotation Xrotation Yrotation
                  End Site
                  {
                    OFFSET 1.69225 -0.51767 -0.607171
                  }
                }
              }
            }
          }
        }
      }
    }
  }
  JOINT rButtock
  {
    OFFSET -8.77824 4.35084 1.2192
    CHANNELS 3 Zrotation Xrotation Yrotation
    JOINT rThigh
    {
      OFFSET 0 -1.70687 -2.19456
      CHANNELS 3 Zrotation Xrotation Yrotation
      JOINT rShin
      {
        OFFSET 0 -36.8199 0.73152
        CHANNELS 3 Zrotation Xrotation Yrotation
        JOINT rFoot
        {
          OFFSET 0.73152 -45.1104 -5.12064
          CHANNELS 3 Zrotation Xrotation Yrotation
          End Site
          {
            OFFSET -1.1221 -3.69964 12.103
          }
        }
      }
    }
  }
  JOINT lButtock
  {
    OFFSET 8.77824 4.35084 1.2192
    CHANNELS 3 Zrotation Xrotation Yrotation
    JOINT lThigh
    {
      OFFSET 0 -1.70687 -2.19456
      CHANNELS 3 Zrotation Xrotation Yrotation
      JOINT lShin
      {
        OFFSET 0 -36.8199 0.73152
        CHANNELS 3 Zrotation Xrotation Yrotation
        JOINT lFoot
        {
          OFFSET -0.73152 -45.1104 -5.12064
          CHANNELS 3 Zrotation Xrotation Yrotation
          End Site
          {
            OFFSET 1.1221 -3.69964 12.103
          }
        }
      }
    }
  }
}
MOTION
Frames:	4
Frame Time:	0.03333
-0.00010997671780778343 61.89757165505422 0.12619996455129756 -3.2871956825256348 -1.8795524835586548 8.132203102111816 -2.2486207485198975 14.393019676208496 3.5498111248016357 2.7335660457611084 -9.758824348449707 1.1347776651382446 -4.911545276641846 14.55553913116455 -3.8504374027252197 9.119563102722168 -22.36884880065918 -5.537831783294678 -0.012100089341402054 -0.012113896198570728 -0.01262887753546238 0.037075720727443695 0.030627798289060593 0.09354384988546371 0.04300150275230408 0.027034757658839226 0.09403342008590698 46.82959747314453 39.80351638793945 17.498994827270508 -25.61664581298828 -26.41948890686035 68.56891632080078 -1.6080951690673828 -10.594170570373535 -1.5871753692626953 -0.04104626551270485 -0.04593738168478012 -0.11445898562669754 -0.07375971227884293 -0.031021669507026672 0.019402170553803444 -0.014723478816449642 -0.056765805929899216 -0.03149646520614624 7.763543605804443 5.4728217124938965 0.4550209045410156 -0.03678075596690178 0.027608901262283325 -0.027324862778186798 2.9662585258483887 0.9044389128684998 0.0832165852189064 0.04959619417786598 0.015853993594646454 -0.06521030515432358 10.309013366699219 0.7509297728538513 -0.09701544791460037 -0.04267565533518791 0.06675443798303604 0.011024096049368382 2.214663505554199 -0.7095953822135925 -0.2453346699476242 0.0644751787185669 0.01756598986685276 0.046409957110881805 -54.418312072753906 40.70901107788086 -26.404781341552734 24.851932525634766 -23.423110961914062 -65.23443603515625 2.01690936088562 -14.32406234741211 2.010094165802002 0.0827525183558464 0.07130418717861176 -0.01594194769859314 -0.0524570606648922 -0.07904108613729477 -0.018868407234549522 0.07015969604253769 -0.004251136910170317 0.10569923371076584 -7.718975067138672 5.466834545135498 -0.4390466809272766 -0.045467015355825424 0.037327367812395096 0.04919048398733139 -2.8871564865112305 0.9679185748100281 -0.05869981274008751 -0.039894167333841324 0.09370835870504379 -0.03427925705909729 -10.268815994262695 0.7329565286636353 -0.04041144251823425 0.04186607897281647 0.00923523772507906 -0.045511916279792786 -2.2644944190979004 -0.7061312198638916 0.14339619874954224 -0.02852996438741684 -0.025465980172157288 0.035058554261922836 -24.3763484954834 -41.45801544189453 -18.313602447509766 -1.2749353647232056 64.49762725830078 2.480846881866455 -4.647069454193115 -11.61967945098877 -10.092744827270508 -0.09094734489917755 0.04855263605713844 0.043247289955616 30.292396545410156 -42.65944290161133 21.32305335998535 1.3459477424621582 66.1761703491211 -2.514909029006958 4.821754455566406 -11.503440856933594 13.127264976501465
0.013693782233935095 62.22898609396158 0.2622178991476653 -3.3675217628479004 -1.7522075176239014 8.424700736999512 -2.1088249683380127 14.289050102233887 3.2924320697784424 2.6497037410736084 -9.788976669311523 0.9840716123580933 -4.808856010437012 14.571633338928223 -3.8632936477661133 9.085180282592773 -22.372648239135742 -5.514533042907715 -0.00766393169760704 -0.04386906698346138 -0.03964376449584961 0.03707373887300491 0.08173818141222 0.1467360109090805 0.03920178860425949 0.04763295128941536 0.2052895426750183 46.855804443359375 39.606910705566406 17.789003372192383 -25.56420135498047 -26.498722076416016 68.76348876953125 -1.6150033473968506 -11.233583450317383 -1.6352708339691162 -0.1226104274392128 -0.07391658425331116 -0.17287510633468628 -0.15746381878852844 -0.06269814819097519 0.038369692862033844 -0.011148198507726192 -0.08297380805015564 -0.05383164435625076 7.763069152832031 5.5309295654296875 0.4691680669784546 -0.030022218823432922 -0.011558478698134422 -0.02594706043601036 2.987389326095581 0.8462831974029541 0.052943337708711624 0.12346631288528442 0.043289221823215485 -0.141175776720047 10.350181579589844 0.7633576989173889 -0.19124606251716614 -0.04743875563144684 0.13387665152549744 0.07377144694328308 2.1879806518554688 -0.7012911438941956 -0.29909491539001465 0.09938681870698929 0.07215754687786102 0.07322174310684204 -54.23737716674805 40.55028533935547 -26.604530334472656 24.86808967590332 -23.459308624267578 -65.43904876708984 1.9726343154907227 -14.0548734664917 1.9745928049087524 0.132526233792305 0.09539977461099625 -0.03361157700419426 -0.03120693378150463 -0.10890969634056091 -0.05092577636241913 0.10927589982748032 0.042065463960170746 0.16137467324733734 -7.703963279724121 5.464029788970947 -0.48718026280403137 -0.06964156776666641 0.010999704711139202 0.11133494228124619 -2.902618169784546 0.9049506187438965 -0.03112282045185566 -0.05948564410209656 0.16470082104206085 -0.017824124544858932 -10.261643409729004 0.7796918153762817 -0.06363146752119064 0.07087429612874985 0.007695815060287714 -0.08768678456544876 -2.2869746685028076 -0.6556639075279236 0.10577075928449631 -0.024204332381486893 -0.027955295518040657 0.06525015830993652 -24.308393478393555 -41.2180290222168 -18.214067459106445 -1.3020989894866943 64.23517608642578 2.4047791957855225 -4.537466526031494 -11.13977336883545 -10.017629623413086 -0.20474833250045776 0.09359468519687653 0.07679738104343414 30.390926361083984 -42.540462493896484 21.385950088500977 1.2449746131896973 66.07556915283203 -2.4242279529571533 4.830870151519775 -10.890371322631836 12.988414764404297
0.1469840167522348 71.36942527902862 -0.022111670220858467 161.38075256347656 71.10821533203125 85.41853332519531 1.6101982593536377 30.99360466003418 13.262290000915527 -5.536934852600098 -10.970551490783691 3.842372179031372 1.9021434783935547 13.427496910095215 12.949996948242188 -5.099435329437256 -24.131467819213867 23.059053421020508 -0.25489485263824463 -0.05216680094599724 0.10410168021917343 0.06002426892518997 0.27846354246139526 0.4269668459892273 0.08717469871044159 -0.014801778830587864 0.3740720748901367 8.622633934020996 53.00960159301758 43.99686813354492 -28.00718879699707 -44.708126068115234 89.39546966552734 -0.761892557144165 3.599168300628662 1.2297701835632324 -0.3699457347393036 -0.44627341628074646 -0.21709470450878143 -0.14909668266773224 -0.06716491281986237 0.13508190214633942 -0.09044887870550156 -0.61509770154953 -0.4695296287536621 8.40708065032959 5.796321868896484 0.24968425929546356 -0.07793564349412918 0.002625182271003723 -0.0947137251496315 2.89776349067688 0.9568641185760498 -0.523138165473938 0.25851595401763916 -0.15766949951648712 -0.12582556903362274 10.308587074279785 0.913902759552002 -0.5546247959136963 -0.27042707800865173 0.6935452222824097 0.15276992321014404 2.0227298736572266 -0.4751743972301483 -0.21501775085926056 0.04174474999308586 0.09380143880844116 -0.12854929268360138 -58.434661865234375 9.305596351623535 -5.907649040222168 28.0397891998291 -42.182918548583984 -87.85204315185547 2.1645359992980957 -40.265472412109375 6.890756607055664 -0.07894101738929749 0.31794169545173645 -0.3422124981880188 -0.23596583306789398 -0.5881938338279724 0.03373771160840988 0.4102594256401062 0.00417598569765687 1.0363163948059082 -7.957554340362549 5.235520362854004 -0.49931463599205017 0.010244976729154587 0.12287881970405579 0.5385985374450684 -2.4472410678863525 0.812684178352356 -0.3705039322376251 -0.22672314941883087 0.28141435980796814 -0.30254846811294556 -10.336910247802734 0.7814405560493469 -0.1952333003282547 -0.037897221744060516 0.2715481221675873 -0.2724735140800476 -2.394559860229492 -0.6196608543395996 -0.08609659224748611 -0.17798300087451935 0.034636449068784714 0.3436296582221985 -29.454769134521484 -29.535022735595703 -17.578828811645508 -0.4780191481113434 65.72437286376953 2.442570686340332 -7.228349685668945 -16.015405654907227 -17.91266441345215 -0.7938665151596069 0.48665109276771545 0.5660886764526367 102.0752944946289 -49.71676254272461 86.33615112304688 175.7988739013672 78.94263458251953 -175.4578094482422 -3.7372777462005615 1.8929591178894043 -5.622480392456055
-0.052290754346854026 70.06559680798654 -0.5438371640761633 114.8779525756836 72.79977416992188 121.35223388671875 -7.369210720062256 31.64906883239746 15.398234367370605 -7.22237491607666 -11.24380111694336 3.1866352558135986 1.330202341079712 13.55650806427002 13.1116361618042 -8.13475513458252 -24.818140029907227 23.91843032836914 -0.7043055891990662 -0.1235058382153511 0.05309714376926422 0.2798009216785431 -0.09582578390836716 0.025847144424915314 0.5142136216163635 -0.10282906144857407 0.162537083029747 8.046784400939941 52.92826461791992 48.90979766845703 -27.399391174316406 -44.846805572509766 92.39364624023438 -0.6945560574531555 3.1370534896850586 0.774872899055481 -0.5208331942558289 0.06048956885933876 -0.24054557085037231 -0.12231646478176117 -0.2596879303455353 0.16287259757518768 0.13905085623264313 -0.04563001170754433 -0.7007311582565308 7.8074951171875 5.619333267211914 0.6469212770462036 -0.4474729597568512 -0.25428229570388794 0.17647075653076172 2.9775097370147705 1.0634698867797852 -0.13509167730808258 0.38496512174606323 -0.024300353601574898 -0.3399747312068939 10.320892333984375 1.1784673929214478 -0.6623319387435913 -0.0785972848534584 0.8255162835121155 0.08879193663597107 2.236558437347412 -0.9734637141227722 -0.33574870228767395 -0.19729484617710114 0.15402789413928986 0.2303658425807953 -61.830196380615234 0.794382631778717 -4.899620056152344 27.71238899230957 -42.00813674926758 -87.55455017089844 0.8624407052993774 -34.06951141357422 5.394542217254639 0.10331659764051437 -0.3162671625614166 -0.676192581653595 -0.3230477273464203 -0.42512047290802 0.23696014285087585 0.18687450885772705 0.2731703817844391 0.5245197415351868 -7.980206489562988 5.362389087677002 -0.48977673053741455 0.0027839194517582655 0.16401539742946625 0.4441457986831665 -2.761265277862549 0.8128092885017395 -0.12977993488311768 -0.009198899380862713 0.24480699002742767 0.11736464500427246 -11.102519989013672 0.5286922454833984 -0.36443790793418884 0.40384504199028015 0.7613267302513123 0.02205660380423069 -2.537846803665161 -0.24485287070274353 0.056224312633275986 -0.13021951913833618 -0.09929388016462326 -0.25431621074676514 -32.29726791381836 -33.86874771118164 -26.35269546508789 0.014401991851627827 64.97660827636719 2.1559247970581055 -9.097651481628418 -14.422097206115723 -17.565746307373047 -0.8137364983558655 0.5202040672302246 0.152732715010643 111.15194702148438 -53.110931396484375 101.19705963134766 175.34466552734375 73.97848510742188 -176.10662841796875 -0.8801774382591248 3.9342267513275146 -5.891149044036865
